<?xml version="1.0" encoding="UTF-8" standalone="no"?>
<svg
   xmlns:osb="http://www.openswatchbook.org/uri/2009/osb"
   xmlns:dc="http://purl.org/dc/elements/1.1/"
   xmlns:cc="http://creativecommons.org/ns#"
   xmlns:rdf="http://www.w3.org/1999/02/22-rdf-syntax-ns#"
   xmlns:svg="http://www.w3.org/2000/svg"
   xmlns="http://www.w3.org/2000/svg"
   xmlns:xlink="http://www.w3.org/1999/xlink"
   xmlns:sodipodi="http://sodipodi.sourceforge.net/DTD/sodipodi-0.dtd"
   xmlns:inkscape="http://www.inkscape.org/namespaces/inkscape"
   width="70mm"
   height="70mm"
   viewBox="0 0 69.999999 69.999999"
   version="1.1"
   id="svg8"
   inkscape:version="1.0.1 (3bc2e813f5, 2020-09-07)"
   sodipodi:docname="HTP_u3_6yo_BCnurmiClosed.svg">
  <defs
     id="defs2">
    <linearGradient
       id="linearGradient1836"
       osb:paint="solid">
      <stop
         style="stop-color:#003e15;stop-opacity:1;"
         offset="0"
         id="stop1834" />
    </linearGradient>
    <rect
       x="100.54167"
       y="23.8125"
       width="26.458332"
       height="26.080357"
       id="rect867" />
    <rect
       x="80.130951"
       y="32.505951"
       width="21.166668"
       height="15.119048"
       id="rect857" />
    <rect
       x="60.098213"
       y="30.994047"
       width="52.538692"
       height="33.639881"
       id="rect851" />
    <pattern
       id="EMFhbasepattern"
       patternUnits="userSpaceOnUse"
       width="6"
       height="6"
       x="0"
       y="0" />
    <filter
       inkscape:collect="always"
       style="color-interpolation-filters:sRGB"
       id="filter2116"
       x="-4.2567797e-05"
       width="1.0000851"
       y="-2.3161701e-05"
       height="1.0000463">
      <feGaussianBlur
         inkscape:collect="always"
         stdDeviation="0.00033968421"
         id="feGaussianBlur2118" />
    </filter>
  </defs>
  <sodipodi:namedview
     id="base"
     pagecolor="#ffffff"
     bordercolor="#666666"
     borderopacity="1.0"
     inkscape:pageopacity="0.0"
     inkscape:pageshadow="2"
     inkscape:zoom="1.8283444"
     inkscape:cx="114.44003"
     inkscape:cy="148.07958"
     inkscape:document-units="mm"
     inkscape:current-layer="layer1"
     inkscape:document-rotation="0"
     showgrid="false"
     inkscape:window-width="1609"
     inkscape:window-height="1198"
     inkscape:window-x="6"
     inkscape:window-y="17"
     inkscape:window-maximized="0"
     fit-margin-top="5"
     fit-margin-left="5"
     fit-margin-right="5"
     fit-margin-bottom="5"
     inkscape:snap-text-baseline="true" />
  <metadata
     id="metadata5">
    <rdf:RDF>
      <cc:Work
         rdf:about="">
        <dc:format>image/svg+xml</dc:format>
        <dc:type
           rdf:resource="http://purl.org/dc/dcmitype/StillImage" />
        <dc:title></dc:title>
      </cc:Work>
    </rdf:RDF>
  </metadata>
  <g
     inkscape:groupmode="layer"
     id="layer3"
     inkscape:label="back"
     style="display:inline">
    <circle
       style="fill:#4daa50;fill-opacity:1;stroke:#101820;stroke-width:2.294;stroke-miterlimit:4;stroke-dasharray:none;stroke-opacity:1"
       id="path1842"
       cx="35"
       cy="35"
       r="30" />
  </g>
  <g
     inkscape:label="Layer 1"
     inkscape:groupmode="layer"
     id="layer1"
     transform="translate(-75.832157,-55.8081)"
     style="display:inline">
    <text
       xml:space="preserve"
       id="text849"
       style="font-size:3.52778px;line-height:1.25;font-family:sans-serif;white-space:pre;shape-inside:url(#rect851);" />
    <text
       xml:space="preserve"
       id="text855"
       style="font-size:3.52778px;line-height:1.25;font-family:sans-serif;white-space:pre;shape-inside:url(#rect857);" />
    <text
       xml:space="preserve"
       id="text865"
       style="font-size:3.52778px;line-height:1.25;font-family:sans-serif;white-space:pre;shape-inside:url(#rect867);" />
    <g
       id="g1473"
       transform="translate(-10.546131,-35.492559)"
       style="fill:#101820;fill-opacity:1">
      <g
         aria-label="II"
         id="text904-1"
         style="font-style:normal;font-variant:normal;font-weight:bold;font-stretch:normal;font-size:50.8px;line-height:1.25;font-family:Georgia;-inkscape-font-specification:'Georgia Bold';fill:#101820;fill-opacity:1;stroke-width:0.264583;filter:url(#filter2116)"
         transform="translate(15.420572,48.245205)">
        <path
           d="M 104.91979,95.654381 H 86.15325 c 0,0 -0.43842,-1.461785 0,-1.934766 0.445321,-0.480425 1.309161,-0.07082 1.95957,-0.148828 0.60733,-0.07284 1.250412,-0.05233 1.810743,-0.297656 0.480285,-0.210277 0.960172,-0.52415 1.240234,-0.967383 0.285034,-0.451099 0.289041,-1.032276 0.347267,-1.562695 0.907616,-8.268172 0.8857,-16.682967 0,-24.953516 -0.05405,-0.504719 -0.05817,-1.054906 -0.322461,-1.488281 -0.284418,-0.466384 -0.780946,-0.788695 -1.26504,-1.041797 -0.540476,-0.282581 -1.167142,-0.357739 -1.761133,-0.496093 -0.663356,-0.154511 -1.57361,0.151565 -2.00918,-0.372071 -0.412424,-0.495812 0,-1.934765 0,-1.934765 h 18.76654 c 0,0 0.428,1.452334 0,1.934765 -0.41449,0.467204 -1.24348,0.125498 -1.86035,0.223243 -0.63262,0.10024 -1.3033,0.104324 -1.88516,0.37207 -0.49738,0.228873 -1.00137,0.551631 -1.28984,1.016992 -0.27596,0.445185 -0.268429,1.016907 -0.322461,1.537891 -0.857197,8.265239 -0.857197,16.663471 0,24.92871 0.05403,0.520984 0.0465,1.092706 0.322461,1.537891 0.28847,0.465361 0.79958,0.773225 1.28984,1.016992 0.52794,0.262505 1.13235,0.336136 1.71153,0.446484 0.67095,0.127831 1.58119,-0.263316 2.03398,0.248047 0.42754,0.482843 0,1.934766 0,1.934766 z"
           style="font-style:normal;font-variant:normal;font-weight:bold;font-stretch:normal;font-size:50.8px;font-family:Georgia;-inkscape-font-specification:'Georgia Bold';fill:#101820;fill-opacity:1;stroke-width:0.264583"
           id="path2093"
           sodipodi:nodetypes="ccaaaaaaaaaaccaaaaaaaaaac" />
      </g>
      <use
         x="0"
         y="0"
         xlink:href="#text904-1"
         id="use2120"
         width="100%"
         height="100%"
         transform="translate(20.847023)"
         style="fill:#101820;fill-opacity:1" />
    </g>
    <path
       style="color:#000000;font-style:normal;font-variant:normal;font-weight:normal;font-stretch:normal;font-size:medium;line-height:normal;font-family:sans-serif;font-variant-ligatures:normal;font-variant-position:normal;font-variant-caps:normal;font-variant-numeric:normal;font-variant-alternates:normal;font-variant-east-asian:normal;font-feature-settings:normal;font-variation-settings:normal;text-indent:0;text-align:start;text-decoration:none;text-decoration-line:none;text-decoration-style:solid;text-decoration-color:#000000;letter-spacing:normal;word-spacing:normal;text-transform:none;writing-mode:lr-tb;direction:ltr;text-orientation:mixed;dominant-baseline:auto;baseline-shift:baseline;text-anchor:start;white-space:normal;shape-padding:0;shape-margin:0;inline-size:0;clip-rule:nonzero;display:inline;overflow:visible;visibility:visible;opacity:1;isolation:auto;mix-blend-mode:normal;color-interpolation:sRGB;color-interpolation-filters:linearRGB;solid-color:#000000;solid-opacity:1;vector-effect:none;fill:#101820;fill-opacity:1;fill-rule:nonzero;stroke:#4daa50;stroke-width:0.594;stroke-linecap:butt;stroke-linejoin:miter;stroke-miterlimit:4;stroke-dasharray:none;stroke-dashoffset:0;stroke-opacity:1;color-rendering:auto;image-rendering:auto;shape-rendering:auto;text-rendering:auto;enable-background:accumulate;stop-color:#000000;stop-opacity:1"
       d="m 92.564416,82.299127 c 0,6.342674 3.723503,11.929377 9.312504,14.836973 5.589,2.90759 12.32148,2.90759 17.91047,0 5.58901,-2.907596 9.31251,-8.494299 9.31251,-14.836973 h -3.02346 c 0,4.445542 -2.66392,8.826886 -7.44351,11.313401 -4.77959,2.486514 -10.82196,2.486514 -15.60154,0 -4.779597,-2.486514 -7.44351,-6.867859 -7.44351,-11.313401 z"
       id="path845" />
  </g>
</svg>
