<?xml version="1.0" encoding="UTF-8" standalone="no"?>
<svg
   xmlns:osb="http://www.openswatchbook.org/uri/2009/osb"
   xmlns:dc="http://purl.org/dc/elements/1.1/"
   xmlns:cc="http://creativecommons.org/ns#"
   xmlns:rdf="http://www.w3.org/1999/02/22-rdf-syntax-ns#"
   xmlns:svg="http://www.w3.org/2000/svg"
   xmlns="http://www.w3.org/2000/svg"
   xmlns:xlink="http://www.w3.org/1999/xlink"
   xmlns:sodipodi="http://sodipodi.sourceforge.net/DTD/sodipodi-0.dtd"
   xmlns:inkscape="http://www.inkscape.org/namespaces/inkscape"
   width="200mm"
   height="100mm"
   viewBox="0 0 200 100"
   version="1.1"
   id="svg8"
   inkscape:version="1.0.1 (3bc2e813f5, 2020-09-07)"
   sodipodi:docname="aMapTest_testingImg.svg">
  <defs
     id="defs2">
    <inkscape:perspective
       sodipodi:type="inkscape:persp3d"
       inkscape:vp_x="60.064147 : 168.99442 : 1"
       inkscape:vp_y="0 : -3405.3823 : 0"
       inkscape:vp_z="745.32794 : 168.99442 : 1"
       inkscape:persp3d-origin="402.69604 : 225.7508 : 1"
       id="perspective888" />
    <inkscape:perspective
       sodipodi:type="inkscape:persp3d"
       inkscape:vp_x="15.891972 : 57.68644 : 1"
       inkscape:vp_y="0 : 850.78022 : 0"
       inkscape:vp_z="197.20135 : 57.68644 : 1"
       inkscape:persp3d-origin="106.54666 : 43.506769 : 1"
       id="perspective848" />
    <linearGradient
       id="linearGradient1836"
       osb:paint="solid">
      <stop
         style="stop-color:#003e15;stop-opacity:1;"
         offset="0"
         id="stop1834" />
    </linearGradient>
    <rect
       x="100.54167"
       y="23.8125"
       width="26.458332"
       height="26.080357"
       id="rect867" />
    <rect
       x="80.130951"
       y="32.505951"
       width="21.166668"
       height="15.119048"
       id="rect857" />
    <rect
       x="60.098213"
       y="30.994047"
       width="52.538692"
       height="33.639881"
       id="rect851" />
    <pattern
       id="EMFhbasepattern"
       patternUnits="userSpaceOnUse"
       width="6"
       height="6"
       x="0"
       y="0" />
    <filter
       inkscape:collect="always"
       style="color-interpolation-filters:sRGB"
       id="filter2116"
       x="-4.2567797e-05"
       width="1.0000851"
       y="-2.3161701e-05"
       height="1.0000463">
      <feGaussianBlur
         inkscape:collect="always"
         stdDeviation="0.00033968421"
         id="feGaussianBlur2118" />
    </filter>
  </defs>
  <sodipodi:namedview
     id="base"
     pagecolor="#ffffff"
     bordercolor="#666666"
     borderopacity="1.0"
     inkscape:pageopacity="0.0"
     inkscape:pageshadow="2"
     inkscape:zoom="4.8587603"
     inkscape:cx="424.71866"
     inkscape:cy="198.3362"
     inkscape:document-units="mm"
     inkscape:current-layer="layer4"
     inkscape:document-rotation="0"
     showgrid="false"
     inkscape:window-width="1987"
     inkscape:window-height="1289"
     inkscape:window-x="488"
     inkscape:window-y="59"
     inkscape:window-maximized="0"
     fit-margin-top="5"
     fit-margin-left="5"
     fit-margin-right="5"
     fit-margin-bottom="5"
     inkscape:snap-text-baseline="true" />
  <metadata
     id="metadata5">
    <rdf:RDF>
      <cc:Work
         rdf:about="">
        <dc:format>image/svg+xml</dc:format>
        <dc:type
           rdf:resource="http://purl.org/dc/dcmitype/StillImage" />
        <dc:title />
      </cc:Work>
    </rdf:RDF>
  </metadata>
  <g
     inkscape:groupmode="layer"
     id="layer2"
     inkscape:label="mapBack"
     style="display:none">
    <rect
       style="fill:#baceca;fill-opacity:1;stroke:none;stroke-width:1.31138;stroke-opacity:1"
       id="rect879"
       width="208.23929"
       height="107.40322"
       x="-1.8430609"
       y="-2.7295318"
       ry="0" />
  </g>
  <g
     inkscape:groupmode="layer"
     id="layer3"
     inkscape:label="back"
     style="display:none">
    <circle
       style="fill:#ffd749;fill-opacity:1;stroke:#101820;stroke-width:2.294;stroke-miterlimit:4;stroke-dasharray:none;stroke-opacity:1"
       id="path1842"
       cx="35"
       cy="50"
       r="30" />
  </g>
  <g
     inkscape:label="Layer 1"
     inkscape:groupmode="layer"
     id="layer1"
     transform="translate(-75.832157,-55.8081)"
     style="display:none">
    <text
       xml:space="preserve"
       id="text849"
       style="font-size:3.52778px;line-height:1.25;font-family:sans-serif;white-space:pre;shape-inside:url(#rect851);" />
    <text
       xml:space="preserve"
       id="text855"
       style="font-size:3.52778px;line-height:1.25;font-family:sans-serif;white-space:pre;shape-inside:url(#rect857);" />
    <text
       xml:space="preserve"
       id="text865"
       style="font-size:3.52778px;line-height:1.25;font-family:sans-serif;white-space:pre;shape-inside:url(#rect867);" />
    <g
       id="g1473"
       transform="translate(-10.546131,-20.492559)"
       style="fill:#101820;fill-opacity:1">
      <g
         aria-label="II"
         id="text904-1"
         style="font-style:normal;font-variant:normal;font-weight:bold;font-stretch:normal;font-size:50.8px;line-height:1.25;font-family:Georgia;-inkscape-font-specification:'Georgia Bold';fill:#101820;fill-opacity:1;stroke-width:0.264583;filter:url(#filter2116)"
         transform="translate(15.420572,48.245205)">
        <path
           d="M 104.91979,95.654381 H 86.15325 c 0,0 -0.43842,-1.461785 0,-1.934766 0.445321,-0.480425 1.309161,-0.07082 1.95957,-0.148828 0.60733,-0.07284 1.250412,-0.05233 1.810743,-0.297656 0.480285,-0.210277 0.960172,-0.52415 1.240234,-0.967383 0.285034,-0.451099 0.289041,-1.032276 0.347267,-1.562695 0.907616,-8.268172 0.8857,-16.682967 0,-24.953516 -0.05405,-0.504719 -0.05817,-1.054906 -0.322461,-1.488281 -0.284418,-0.466384 -0.780946,-0.788695 -1.26504,-1.041797 -0.540476,-0.282581 -1.167142,-0.357739 -1.761133,-0.496093 -0.663356,-0.154511 -1.57361,0.151565 -2.00918,-0.372071 -0.412424,-0.495812 0,-1.934765 0,-1.934765 h 18.76654 c 0,0 0.428,1.452334 0,1.934765 -0.41449,0.467204 -1.24348,0.125498 -1.86035,0.223243 -0.63262,0.10024 -1.3033,0.104324 -1.88516,0.37207 -0.49738,0.228873 -1.00137,0.551631 -1.28984,1.016992 -0.27596,0.445185 -0.268429,1.016907 -0.322461,1.537891 -0.857197,8.265239 -0.857197,16.663471 0,24.92871 0.05403,0.520984 0.0465,1.092706 0.322461,1.537891 0.28847,0.465361 0.79958,0.773225 1.28984,1.016992 0.52794,0.262505 1.13235,0.336136 1.71153,0.446484 0.67095,0.127831 1.58119,-0.263316 2.03398,0.248047 0.42754,0.482843 0,1.934766 0,1.934766 z"
           style="font-style:normal;font-variant:normal;font-weight:bold;font-stretch:normal;font-size:50.8px;font-family:Georgia;-inkscape-font-specification:'Georgia Bold';fill:#101820;fill-opacity:1;stroke-width:0.264583"
           id="path2093"
           sodipodi:nodetypes="ccaaaaaaaaaaccaaaaaaaaaac" />
      </g>
      <use
         x="0"
         y="0"
         xlink:href="#text904-1"
         id="use2120"
         width="100%"
         height="100%"
         transform="translate(20.847023)"
         style="fill:#101820;fill-opacity:1" />
    </g>
    <path
       style="color:#000000;font-style:normal;font-variant:normal;font-weight:normal;font-stretch:normal;font-size:medium;line-height:normal;font-family:sans-serif;font-variant-ligatures:normal;font-variant-position:normal;font-variant-caps:normal;font-variant-numeric:normal;font-variant-alternates:normal;font-variant-east-asian:normal;font-feature-settings:normal;font-variation-settings:normal;text-indent:0;text-align:start;text-decoration:none;text-decoration-line:none;text-decoration-style:solid;text-decoration-color:#000000;letter-spacing:normal;word-spacing:normal;text-transform:none;writing-mode:lr-tb;direction:ltr;text-orientation:mixed;dominant-baseline:auto;baseline-shift:baseline;text-anchor:start;white-space:normal;shape-padding:0;shape-margin:0;inline-size:0;clip-rule:nonzero;display:inline;overflow:visible;visibility:visible;opacity:1;isolation:auto;mix-blend-mode:normal;color-interpolation:sRGB;color-interpolation-filters:linearRGB;solid-color:#000000;solid-opacity:1;vector-effect:none;fill:#101820;fill-opacity:1;fill-rule:nonzero;stroke:#ffd749;stroke-width:0.594;stroke-linecap:butt;stroke-linejoin:miter;stroke-miterlimit:4;stroke-dasharray:none;stroke-dashoffset:0;stroke-opacity:1;color-rendering:auto;image-rendering:auto;shape-rendering:auto;text-rendering:auto;enable-background:accumulate;stop-color:#000000;stop-opacity:1"
       d="m 92.564416,97.299129 c 0,6.342671 3.723503,11.929381 9.312504,14.836971 5.589,2.90759 12.32148,2.90759 17.91047,0 5.58901,-2.90759 9.31251,-8.4943 9.31251,-14.836971 h -3.02346 c 0,4.445541 -2.66392,8.826881 -7.44351,11.313401 -4.77959,2.48651 -10.82196,2.48651 -15.60154,0 -4.779597,-2.48651 -7.44351,-6.86786 -7.44351,-11.313401 z"
       id="path845" />
    <g
       sodipodi:type="inkscape:box3d"
       id="g850"
       style="fill:#4daa50;stroke:#4daa50;stroke-width:4.64882"
       inkscape:perspectiveID="#perspective848"
       inkscape:corner0="-0.25615952 : 0.038035224 : 0 : 1"
       inkscape:corner7="-0.40633351 : 0.017741744 : 0.25 : 1">
      <path
         sodipodi:type="inkscape:box3dside"
         id="path862"
         style="fill:#e9e9ff;fill-rule:evenodd;stroke:none;stroke-width:4.08269;stroke-linejoin:round"
         inkscape:box3dsidetype="11"
         d="m 228.54894,79.82904 24.35503,-3.256115 v 20.464593 l -24.35503,0.163819 z"
         points="252.90397,76.572925 252.90397,97.037518 228.54894,97.201337 228.54894,79.82904 " />
      <path
         sodipodi:type="inkscape:box3dside"
         id="path852"
         style="fill:#353564;fill-rule:evenodd;stroke:none;stroke-width:4.08269;stroke-linejoin:round"
         inkscape:box3dsidetype="6"
         d="m 213.59796,73.681009 v 23.211013 l 14.95098,0.309315 V 79.82904 Z"
         points="213.59796,96.892022 228.54894,97.201337 228.54894,79.82904 213.59796,73.681009 " />
      <path
         sodipodi:type="inkscape:box3dside"
         id="path854"
         style="fill:#4d4d9f;fill-rule:evenodd;stroke:none;stroke-width:4.08269;stroke-linejoin:round"
         inkscape:box3dsidetype="5"
         d="m 213.59796,73.681009 30.82923,-6.182512 8.47678,9.074428 -24.35503,3.256115 z"
         points="244.42719,67.498497 252.90397,76.572925 228.54894,79.82904 213.59796,73.681009 " />
      <path
         sodipodi:type="inkscape:box3dside"
         id="path860"
         style="fill:#afafde;fill-rule:evenodd;stroke:none;stroke-width:4.08269;stroke-linejoin:round"
         inkscape:box3dsidetype="13"
         d="m 213.59796,96.892022 30.82923,-0.311049 8.47678,0.456545 -24.35503,0.163819 z"
         points="244.42719,96.580973 252.90397,97.037518 228.54894,97.201337 213.59796,96.892022 " />
      <path
         sodipodi:type="inkscape:box3dside"
         id="path858"
         style="fill:#d7d7ff;fill-rule:evenodd;stroke:none;stroke-width:4.08269;stroke-linejoin:round"
         inkscape:box3dsidetype="14"
         d="m 244.42719,67.498497 v 29.082476 l 8.47678,0.456545 V 76.572925 Z"
         points="244.42719,96.580973 252.90397,97.037518 252.90397,76.572925 244.42719,67.498497 " />
      <path
         sodipodi:type="inkscape:box3dside"
         id="path856"
         style="fill:#8686bf;fill-rule:evenodd;stroke:none;stroke-width:4.08269;stroke-linejoin:round"
         inkscape:box3dsidetype="3"
         d="m 213.59796,73.681009 30.82923,-6.182512 v 29.082476 l -30.82923,0.311049 z"
         points="244.42719,67.498497 244.42719,96.580973 213.59796,96.892022 213.59796,73.681009 " />
    </g>
    <g
       sodipodi:type="inkscape:box3d"
       id="g864"
       style="fill:#4daa50;fill-opacity:1;stroke:#4daa50;stroke-width:4.64882"
       inkscape:perspectiveID="#perspective888"
       inkscape:corner0="-0.22963242 : 0.014335304 : 0 : 1"
       inkscape:corner7="-0.26315888 : -0.027832793 : 0.071517273 : 1">
      <path
         sodipodi:type="inkscape:box3dside"
         id="path876"
         style="fill:#4daa50;fill-opacity:1;fill-rule:evenodd;stroke:none;stroke-width:4.78408;stroke-linejoin:round"
         inkscape:box3dsidetype="11"
         d="m 601.09067,-22.616577 19.29382,-0.391118 V -200.64981 l -19.29382,7.46538 z"
         points="620.38449,-23.007695 620.38449,-200.64981 601.09067,-193.18443 601.09067,-22.616577 " />
      <path
         sodipodi:type="inkscape:box3dside"
         id="path866"
         style="fill:#4daa50;fill-opacity:1;fill-rule:evenodd;stroke:none;stroke-width:4.78408;stroke-linejoin:round"
         inkscape:box3dsidetype="6"
         d="M 580.66047,-23.492037 V -209.8946 l 20.4302,16.71017 v 170.567853 z"
         points="580.66047,-209.8946 601.09067,-193.18443 601.09067,-22.616577 580.66047,-23.492037 " />
      <path
         sodipodi:type="inkscape:box3dside"
         id="path874"
         style="fill:#4daa50;fill-opacity:1;fill-rule:evenodd;stroke:none;stroke-width:4.78408;stroke-linejoin:round"
         inkscape:box3dsidetype="13"
         d="m 580.66047,-209.8946 20.23689,-8.95028 19.48713,18.19507 -19.29382,7.46538 z"
         points="600.89736,-218.84488 620.38449,-200.64981 601.09067,-193.18443 580.66047,-209.8946 " />
      <path
         sodipodi:type="inkscape:box3dside"
         id="path868"
         style="fill:#4daa50;fill-opacity:1;fill-rule:evenodd;stroke:none;stroke-width:4.78408;stroke-linejoin:round"
         inkscape:box3dsidetype="5"
         d="m 580.66047,-23.492037 20.23689,-0.468913 19.48713,0.953255 -19.29382,0.391118 z"
         points="600.89736,-23.96095 620.38449,-23.007695 601.09067,-22.616577 580.66047,-23.492037 " />
      <path
         sodipodi:type="inkscape:box3dside"
         id="path872"
         style="fill:#4daa50;fill-opacity:1;fill-rule:evenodd;stroke:none;stroke-width:4.78408;stroke-linejoin:round"
         inkscape:box3dsidetype="14"
         d="m 600.89736,-23.96095 v -194.88393 l 19.48713,18.19507 v 177.642115 z"
         points="600.89736,-218.84488 620.38449,-200.64981 620.38449,-23.007695 600.89736,-23.96095 " />
      <path
         sodipodi:type="inkscape:box3dside"
         id="path870"
         style="fill:#4daa50;fill-opacity:1;fill-rule:evenodd;stroke:none;stroke-width:4.78408;stroke-linejoin:round"
         inkscape:box3dsidetype="3"
         d="m 580.66047,-23.492037 20.23689,-0.468913 v -194.88393 l -20.23689,8.95028 z"
         points="600.89736,-23.96095 600.89736,-218.84488 580.66047,-209.8946 580.66047,-23.492037 " />
    </g>
    <g
       sodipodi:type="inkscape:box3d"
       id="g896"
       style="fill:#4daa50;fill-opacity:1;stroke:#4daa50;stroke-width:4.64882"
       inkscape:perspectiveID="#perspective848"
       inkscape:corner0="-0.25615952 : 0.017741744 : 0 : 1"
       inkscape:corner7="-0.28665236 : -0.024903104 : 0.25 : 1">
      <path
         sodipodi:type="inkscape:box3dside"
         id="path908"
         style="fill:#e9e9ff;fill-rule:evenodd;stroke:none;stroke-linejoin:round"
         inkscape:box3dsidetype="11"
         d="m 228.54894,97.201337 4.33091,-0.02913 v 37.661784 l -4.33091,-1.1264 z"
         points="232.87985,97.172206 232.87985,134.83399 228.54894,133.70759 228.54894,97.201337 " />
      <path
         sodipodi:type="inkscape:box3dside"
         id="path898"
         style="fill:#353564;fill-rule:evenodd;stroke:none;stroke-linejoin:round"
         inkscape:box3dsidetype="6"
         d="m 213.59796,96.892022 v 48.775768 l 14.95098,-11.9602 V 97.201337 Z"
         points="213.59796,145.66779 228.54894,133.70759 228.54894,97.201337 213.59796,96.892022 " />
      <path
         sodipodi:type="inkscape:box3dside"
         id="path906"
         style="fill:#afafde;fill-rule:evenodd;stroke:none;stroke-linejoin:round"
         inkscape:box3dsidetype="13"
         d="m 213.59796,145.66779 5.20963,2.03242 14.07226,-12.86622 -4.33091,-1.1264 z"
         points="218.80759,147.70021 232.87985,134.83399 228.54894,133.70759 213.59796,145.66779 " />
      <path
         sodipodi:type="inkscape:box3dside"
         id="path900"
         style="fill:#4d4d9f;fill-rule:evenodd;stroke:none;stroke-linejoin:round"
         inkscape:box3dsidetype="5"
         d="m 213.59796,96.892022 5.20963,-0.05256 14.07226,0.332746 -4.33091,0.02913 z"
         points="218.80759,96.83946 232.87985,97.172206 228.54894,97.201337 213.59796,96.892022 " />
      <path
         sodipodi:type="inkscape:box3dside"
         id="path904"
         style="fill:#d7d7ff;fill-rule:evenodd;stroke:none;stroke-linejoin:round"
         inkscape:box3dsidetype="14"
         d="m 218.80759,96.83946 v 50.86075 l 14.07226,-12.86622 V 97.172206 Z"
         points="218.80759,147.70021 232.87985,134.83399 232.87985,97.172206 218.80759,96.83946 " />
      <path
         sodipodi:type="inkscape:box3dside"
         id="path902"
         style="fill:#8686bf;fill-rule:evenodd;stroke:none;stroke-linejoin:round"
         inkscape:box3dsidetype="3"
         d="m 213.59796,96.892022 5.20963,-0.05256 v 50.86075 l -5.20963,-2.03242 z"
         points="218.80759,96.83946 218.80759,147.70021 213.59796,145.66779 213.59796,96.892022 " />
    </g>
    <g
       sodipodi:type="inkscape:box3d"
       id="g926"
       style="fill:#4daa50;fill-opacity:1;stroke:#4daa50;stroke-width:4.64882"
       inkscape:perspectiveID="#perspective848"
       inkscape:corner0="-0.37986515 : 0.017868985 : 0 : 1"
       inkscape:corner7="-0.40631184 : -0.022575231 : 0.25 : 1">
      <path
         sodipodi:type="inkscape:box3dside"
         id="path938"
         style="fill:#e9e9ff;fill-rule:evenodd;stroke:none;stroke-linejoin:round"
         inkscape:box3dsidetype="11"
         d="m 248.00109,96.946085 4.89874,-0.03685 v 40.784195 l -4.89874,-1.20274 z"
         points="252.89983,96.909235 252.89983,137.69343 248.00109,136.49069 248.00109,96.946085 " />
      <path
         sodipodi:type="inkscape:box3dside"
         id="path928"
         style="fill:#353564;fill-rule:evenodd;stroke:none;stroke-linejoin:round"
         inkscape:box3dsidetype="6"
         d="m 237.90957,96.472167 v 55.486543 l 10.09152,-15.46802 V 96.946085 Z"
         points="237.90957,151.95871 248.00109,136.49069 248.00109,96.946085 237.90957,96.472167 " />
      <path
         sodipodi:type="inkscape:box3dside"
         id="path936"
         style="fill:#afafde;fill-rule:evenodd;stroke:none;stroke-linejoin:round"
         inkscape:box3dsidetype="13"
         d="m 237.90957,151.95871 6.51204,2.39825 8.47822,-16.66353 -4.89874,-1.20274 z"
         points="244.42161,154.35696 252.89983,137.69343 248.00109,136.49069 237.90957,151.95871 " />
      <path
         sodipodi:type="inkscape:box3dside"
         id="path930"
         style="fill:#4d4d9f;fill-rule:evenodd;stroke:none;stroke-linejoin:round"
         inkscape:box3dsidetype="5"
         d="m 237.90957,96.472167 6.51204,-0.07348 8.47822,0.510547 -4.89874,0.03685 z"
         points="244.42161,96.398688 252.89983,96.909235 248.00109,96.946085 237.90957,96.472167 " />
      <path
         sodipodi:type="inkscape:box3dside"
         id="path934"
         style="fill:#d7d7ff;fill-rule:evenodd;stroke:none;stroke-linejoin:round"
         inkscape:box3dsidetype="14"
         d="m 244.42161,96.398688 v 57.958272 l 8.47822,-16.66353 V 96.909235 Z"
         points="244.42161,154.35696 252.89983,137.69343 252.89983,96.909235 244.42161,96.398688 " />
      <path
         sodipodi:type="inkscape:box3dside"
         id="path932"
         style="fill:#8686bf;fill-rule:evenodd;stroke:none;stroke-linejoin:round"
         inkscape:box3dsidetype="3"
         d="m 237.90957,96.472167 6.51204,-0.07348 v 57.958272 l -6.51204,-2.39825 z"
         points="244.42161,96.398688 244.42161,154.35696 237.90957,151.95871 237.90957,96.472167 " />
    </g>
  </g>
  <g
     inkscape:groupmode="layer"
     id="layer4"
     inkscape:label="testing">
    <rect
       style="fill:#103115;stroke:#58688f;stroke-width:1.23;fill-opacity:1;stroke-opacity:1"
       id="rect881"
       width="32.3923"
       height="26.721706"
       x="83.349976"
       y="26.877066" />
  </g>
</svg>
